# 3ds Max Wavefront OBJ Exporter v0.97b - (c)2007 guruware
# File Created: 27.04.2020 21:18:05

mtllib footer.mtl

#
# object footer
#

v  -0.9800 0.2000 -0.0200
v  -2.3000 0.2000 -0.0200
v  -2.3000 0.2000 0.0000
v  -1.0000 0.2000 0.0000
v  -0.9800 0.2000 0.3200
v  -1.0000 0.2000 0.3000
v  -0.9800 0.0000 -0.0200
v  -2.3000 0.0000 -0.0200
v  -0.9800 0.0000 0.3200
v  -1.3001 0.0000 0.3000
v  -1.3001 0.0000 0.3202
v  -1.3001 0.2000 0.3202
v  -1.3001 0.2000 0.3000
v  -1.0000 0.0000 0.0000
v  -1.0000 0.0000 0.3000
v  -2.3000 0.0000 0.0000
v  -0.9800 0.2000 1.6800
v  -1.3000 0.2000 1.6800
v  -1.3000 0.2000 1.7000
v  -1.0000 0.2000 1.7000
v  -0.9800 0.2000 3.1000
v  -1.0000 0.2000 3.1000
v  -0.9800 0.0000 1.6800
v  -1.3000 0.0000 1.6800
v  -0.9800 0.0000 3.1000
v  -1.0000 0.0000 3.1000
v  -1.0000 0.0000 1.7000
v  -1.3000 0.0000 1.7000
v  1.9800 0.2000 -1.9800
v  2.4800 0.2000 -1.9800
v  2.5000 0.2000 -2.0000
v  2.0000 0.2000 -2.0000
v  1.9800 0.2000 -3.9800
v  2.0000 0.2000 -4.0000
v  1.9800 0.0000 -1.9800
v  2.4800 0.0000 -1.9800
v  1.9800 0.0000 -3.9800
v  -2.3000 0.0000 -2.1000
v  -2.2800 0.0000 -2.0800
v  -2.2800 0.2000 -2.0800
v  -2.3000 0.2000 -2.1000
v  2.0000 0.0000 -2.0000
v  2.0000 0.0000 -4.0000
v  2.5000 0.0000 -2.0000
v  2.4800 0.0000 -1.7000
v  2.5000 0.0000 -1.7000
v  2.5000 0.2000 -1.7000
v  2.4800 0.2000 -1.7000
v  -1.9801 0.2000 -3.9801
v  -1.9801 0.0000 -3.9801
v  -2.0001 0.2000 -4.0001
v  -2.0001 0.0000 -4.0001
v  -1.9802 0.2000 -2.0800
v  -1.9802 0.0000 -2.0800
v  -2.0002 0.2000 -2.1000
v  -2.0002 0.0000 -2.1000
v  1.9800 0.2000 -0.0200
v  2.0000 0.2000 -0.0000
v  2.5000 0.2000 -0.0000
v  2.4800 0.2000 -0.0200
v  1.9800 0.2000 3.1000
v  2.0000 0.2000 3.1000
v  1.9800 0.0000 -0.0200
v  2.4800 0.0000 -0.0200
v  1.9800 0.0000 3.1000
v  2.0000 0.0000 3.1000
v  2.0000 0.0000 -0.0000
v  2.5000 0.0000 -0.0000
v  2.4800 0.0000 -0.3000
v  2.4800 0.2000 -0.3000
v  2.5000 0.2000 -0.3000
v  2.5000 0.0000 -0.3000
# 72 vertices

vn 0.0000 1.0000 0.0000
vn 0.0000 1.0000 -0.0000
vn -0.0000 1.0000 0.0000
vn 0.7071 0.0000 -0.7071
vn -0.7071 -0.0000 -0.7071
vn 0.6669 -0.3335 0.6664
vn 0.6669 0.3335 0.6664
vn -0.5773 -0.5774 -0.5774
vn -0.5771 -0.5773 0.5776
vn -0.5771 0.5773 0.5776
vn -0.5773 0.5774 -0.5774
vn -0.7071 0.0000 0.7071
vn -0.4850 -0.7276 -0.4851
vn -0.4850 0.7276 -0.4851
vn 0.0000 -1.0000 -0.0000
vn -0.7071 0.0000 -0.7071
vn 0.7071 0.0000 0.7071
vn -0.4851 -0.7276 0.4851
vn -0.4851 0.7276 0.4851
vn -0.7735 -0.5469 -0.3204
vn -0.2971 -0.6303 0.7173
vn -0.2971 0.6303 0.7173
vn -0.7735 0.5469 -0.3204
vn 0.6667 -0.3333 -0.6667
vn 0.6667 0.3333 -0.6667
vn -0.5774 -0.5774 0.5773
vn 0.5774 -0.5773 0.5774
vn 0.5773 0.5774 0.5774
vn -0.5774 0.5774 0.5773
vn 0.3015 0.9045 0.3015
vn 0.3015 -0.9045 0.3015
vn 0.5773 -0.5774 0.5774
vn -0.3015 0.9045 -0.3015
vn -0.3015 -0.9045 -0.3015
vn -0.4851 0.7276 -0.4851
vn -0.4851 -0.7276 -0.4851
vn 0.6667 -0.3333 0.6667
vn 0.6667 0.3333 0.6667
vn -0.5774 -0.5774 -0.5773
vn -0.5774 0.5774 -0.5773
vn 0.5774 0.5774 -0.5774
vn 0.5774 -0.5774 -0.5774
# 42 vertex normals

vt 1.0000 0.0000 0.0000
vt 0.0000 0.0000 0.0000
vt 0.0000 0.0312 0.0000
vt 0.9000 0.0312 0.0000
vt 1.0000 1.0000 0.0000
vt 0.9000 1.0000 0.0000
vt 0.1190 0.0000 0.0000
vt 0.0000 1.0000 0.0000
vt 0.1190 1.0000 0.0000
vt 0.5000 0.0000 0.0000
vt 0.5000 1.0000 0.0000
vt 0.5119 0.0000 0.0000
vt 0.5119 1.0000 0.0000
vt 0.8810 0.0000 0.0000
vt 0.8810 1.0000 0.0000
vt 0.9881 0.0000 0.0000
vt 0.9881 1.0000 0.0000
vt 0.9000 0.9688 0.0000
vt 0.0000 0.9688 0.0000
vt 0.9000 0.0000 0.0000
# 20 texture coords

o footer
g footer
usemtl Footer
s 1
f 1/1/1 2/2/2 3/3/2 4/4/1 
f 5/5/3 1/1/1 4/4/1 6/6/3 
s 2
f 7/7/4 8/2/5 2/8/5 1/9/4 
s 4
f 9/10/6 7/7/4 1/9/4 5/11/7 
s 2
f 10/12/8 11/10/9 12/11/10 13/13/11 
s 4
f 14/14/12 15/12/13 6/13/14 4/15/12 
s 2
f 16/16/12 14/14/12 4/15/12 3/17/12 
s 4
f 8/1/5 16/16/12 3/17/12 2/5/5 
s 1
f 14/18/15 16/19/15 8/8/15 7/5/15 
f 15/20/15 14/18/15 7/5/15 9/1/15 
s off
f 9/10/6 5/11/7 12/11/10 11/10/9 
f 5/11/7 6/13/14 13/13/11 12/11/10 
f 6/13/14 15/12/13 10/12/8 13/13/11 
f 15/12/13 9/10/6 11/10/9 10/12/8 
s 1
f 17/1/1 18/2/2 19/3/2 20/4/1 
f 21/5/1 17/1/1 20/4/1 22/6/1 
s 2
f 23/7/4 24/2/16 18/8/16 17/9/4 
s 4
f 25/10/17 23/7/4 17/9/4 21/11/17 
s 2
f 26/12/12 25/10/17 21/11/17 22/13/12 
s 4
f 27/14/12 26/12/12 22/13/12 20/15/12 
s 2
f 28/16/12 27/14/12 20/15/12 19/17/12 
s 4
f 24/1/16 28/16/12 19/17/12 18/5/16 
s 1
f 27/18/15 28/19/15 24/8/15 23/5/15 
f 26/20/15 27/18/15 23/5/15 25/1/15 
f 29/1/2 30/2/2 31/3/2 32/4/2 
f 33/5/2 29/1/2 32/4/2 34/6/2 
s 2
f 35/7/12 36/2/18 30/8/19 29/9/12 
s 4
f 37/10/18 35/7/12 29/9/12 33/11/19 
s 2
f 38/12/20 39/10/21 40/11/22 41/13/23 
s 4
f 42/14/4 43/12/24 34/13/25 32/15/4 
s 2
f 44/16/24 42/14/4 32/15/4 31/17/25 
s 4
f 45/1/26 46/16/27 47/17/28 48/5/29 
s 1
f 42/18/15 44/19/15 36/8/15 35/5/15 
f 43/20/15 42/18/15 35/5/15 37/1/15 
s off
f 30/5/19 36/1/18 45/1/26 48/5/29 
f 36/1/18 44/16/24 46/16/27 45/1/26 
f 44/16/24 31/17/25 47/17/28 46/16/27 
f 31/17/25 30/5/19 48/5/29 47/17/28 
f 37/10/18 33/11/19 49/11/30 50/10/31 
f 33/11/19 34/13/25 51/13/11 49/11/30 
f 34/13/25 43/12/24 52/12/8 51/13/11 
f 43/12/24 37/10/18 50/10/31 52/12/8 
f 50/10/31 49/11/30 53/11/28 54/10/32 
f 49/11/30 51/13/11 55/13/33 53/11/28 
f 51/13/11 52/12/8 56/12/34 55/13/33 
f 52/12/8 50/10/31 54/10/32 56/12/34 
f 54/10/32 53/11/28 40/11/22 39/10/21 
f 53/11/28 55/13/33 41/13/23 40/11/22 
f 55/13/33 56/12/34 38/12/20 41/13/23 
f 56/12/34 54/10/32 39/10/21 38/12/20 
s 1
f 57/1/2 58/4/2 59/3/2 60/2/2 
f 61/5/2 62/6/2 58/4/2 57/1/2 
s 2
f 63/7/5 57/9/5 60/8/35 64/2/36 
s 4
f 65/10/12 61/11/12 57/9/5 63/7/5 
s 2
f 66/12/17 62/13/17 61/11/12 65/10/12 
s 4
f 67/14/17 58/15/17 62/13/17 66/12/17 
s 2
f 68/16/37 59/17/38 58/15/17 67/14/17 
s 4
f 69/1/39 70/5/40 71/17/41 72/16/42 
s 1
f 67/18/15 63/5/15 64/8/15 68/19/15 
f 66/20/15 65/1/15 63/5/15 67/18/15 
s off
f 60/5/35 70/5/40 69/1/39 64/1/36 
f 64/1/36 69/1/39 72/16/42 68/16/37 
f 68/16/37 72/16/42 71/17/41 59/17/38 
f 59/17/38 71/17/41 70/5/40 60/5/35 
# 64 polygons

