# 3ds Max Wavefront OBJ Exporter v0.97b - (c)2007 guruware
# File Created: 27.04.2020 21:22:47

mtllib w3.mtl

#
# object SlidingWindow001
#

v  -2.2400 0.0000 -2.1010
v  -2.2400 0.0300 -2.1010
v  -2.2400 0.0300 0.0010
v  -2.2400 0.0000 0.0010
v  -2.3000 -0.0000 -2.1010
v  -2.3000 0.0300 -2.1010
v  -2.3000 0.0300 0.0010
v  -2.3000 -0.0000 0.0010
v  -2.2400 2.0700 -2.1010
v  -2.2400 2.1000 -2.1010
v  -2.2400 2.1000 0.0010
v  -2.2400 2.0700 0.0010
v  -2.3000 2.0700 -2.1010
v  -2.3000 2.1000 -2.1010
v  -2.3000 2.1000 0.0010
v  -2.3000 2.0700 0.0010
v  -2.2400 2.0700 -2.0510
v  -2.2400 0.0300 -2.0510
v  -2.3000 2.0700 -2.0510
v  -2.3000 0.0300 -2.0510
v  -2.2400 0.0300 -0.0490
v  -2.2400 2.0700 -0.0490
v  -2.3000 0.0300 -0.0490
v  -2.3000 2.0700 -0.0490
v  -2.2100 0.0000 -2.1010
v  -2.2100 0.0300 -2.1010
v  -2.2100 0.0300 0.0010
v  -2.2100 0.0000 0.0010
v  -2.2700 -0.0000 -2.1010
v  -2.2700 0.0300 -2.1010
v  -2.2700 0.0300 0.0010
v  -2.2700 -0.0000 0.0010
v  -2.2100 2.0700 -2.1010
v  -2.2100 2.1000 -2.1010
v  -2.2100 2.1000 0.0010
v  -2.2100 2.0700 0.0010
v  -2.2700 2.0700 -2.1010
v  -2.2700 2.1000 -2.1010
v  -2.2700 2.1000 0.0010
v  -2.2700 2.0700 0.0010
v  -2.2100 2.0700 -2.0510
v  -2.2100 0.0300 -2.0510
v  -2.2700 2.0700 -2.0510
v  -2.2700 0.0300 -2.0510
v  -2.2100 0.0300 -0.0490
v  -2.2100 2.0700 -0.0490
v  -2.2700 0.0300 -0.0490
v  -2.2700 2.0700 -0.0490
v  -2.2550 0.0300 -0.0490
v  -2.2550 2.0700 -0.0490
v  -2.2550 2.0700 -2.0510
v  -2.2550 0.0300 -2.0510
v  -2.2550 0.0300 -1.0500
v  -2.2550 0.0800 -1.0500
v  -2.2550 0.0800 -0.0490
v  -2.2325 0.0800 -1.0500
v  -2.2325 0.0800 -0.0490
v  -2.2325 0.0300 -1.0500
v  -2.2325 0.0300 -0.0490
v  -2.2550 2.0200 -1.0500
v  -2.2550 2.0700 -1.0500
v  -2.2550 2.0200 -0.0490
v  -2.2325 2.0200 -0.0490
v  -2.2325 2.0200 -1.0500
v  -2.2325 2.0700 -0.0490
v  -2.2325 2.0700 -1.0500
v  -2.2550 2.0200 -1.0000
v  -2.2550 0.0800 -1.0000
v  -2.2325 2.0200 -1.0000
v  -2.2325 0.0800 -1.0000
v  -2.2550 0.0800 -0.0990
v  -2.2550 2.0200 -0.0990
v  -2.2325 0.0800 -0.0990
v  -2.2325 2.0200 -0.0990
v  -2.3000 0.0800 -2.0510
v  -2.3000 0.0800 -1.0500
v  -2.3000 0.0300 -1.0500
v  -2.2775 0.0800 -2.0510
v  -2.2775 0.0800 -1.0500
v  -2.2775 0.0300 -2.0510
v  -2.2775 0.0300 -1.0500
v  -2.3000 2.0200 -2.0510
v  -2.3000 2.0700 -1.0500
v  -2.3000 2.0200 -1.0500
v  -2.2775 2.0200 -1.0500
v  -2.2775 2.0200 -2.0510
v  -2.2775 2.0700 -1.0500
v  -2.2775 2.0700 -2.0510
v  -2.3000 2.0200 -2.0010
v  -2.3000 0.0800 -2.0010
v  -2.2775 2.0200 -2.0010
v  -2.2775 0.0800 -2.0010
v  -2.3000 0.0800 -1.1000
v  -2.3000 2.0200 -1.1000
v  -2.2775 0.0800 -1.1000
v  -2.2775 2.0200 -1.1000
v  -2.2100 0.0800 -1.0500
v  -2.2100 0.0800 -0.0490
v  -2.2100 0.0300 -1.0500
v  -2.2100 2.0200 -0.0490
v  -2.2100 2.0200 -1.0500
v  -2.2100 2.0700 -1.0500
v  -2.2100 2.0200 -1.0000
v  -2.2100 0.0800 -1.0000
v  -2.2100 0.0800 -0.0990
v  -2.2100 2.0200 -0.0990
v  -2.2550 0.0800 -2.0510
v  -2.2550 2.0200 -2.0510
v  -2.2550 2.0200 -2.0010
v  -2.2550 0.0800 -2.0010
v  -2.2550 0.0800 -1.1000
v  -2.2550 2.0200 -1.1000
v  -2.2275 0.0300 -1.0500
v  -2.2275 2.0700 -1.0500
v  -2.2275 2.0700 -0.0490
v  -2.2275 0.0300 -0.0490
v  -2.2375 0.0300 -1.0500
v  -2.2375 2.0700 -1.0500
v  -2.2375 2.0700 -0.0490
v  -2.2375 0.0300 -0.0490
v  -2.2725 0.0300 -2.0510
v  -2.2725 2.0700 -2.0510
v  -2.2725 2.0700 -1.0500
v  -2.2725 0.0300 -1.0500
v  -2.2825 0.0300 -2.0510
v  -2.2825 2.0700 -2.0510
v  -2.2825 2.0700 -1.0500
v  -2.2825 0.0300 -1.0500
v  -2.2950 2.1000 0.0010
v  -2.2950 2.1700 0.0010
v  -2.2950 2.1700 -2.1010
v  -2.2950 2.1000 -2.1010
v  -2.2350 2.1000 0.0010
v  -2.2350 2.1700 0.0010
v  -2.2350 2.1700 -2.1010
v  -2.2350 2.1000 -2.1010
v  -2.2950 2.8300 0.0010
v  -2.2950 2.9000 0.0010
v  -2.2950 2.9000 -2.1010
v  -2.2950 2.8300 -2.1010
v  -2.2350 2.8300 0.0010
v  -2.2350 2.9000 0.0010
v  -2.2350 2.9000 -2.1010
v  -2.2350 2.8300 -2.1010
v  -2.2950 2.8300 -0.0690
v  -2.2950 2.1700 -0.0690
v  -2.2350 2.8300 -0.0690
v  -2.2350 2.1700 -0.0690
v  -2.2950 2.1700 -2.0310
v  -2.2950 2.8300 -2.0310
v  -2.2350 2.1700 -2.0310
v  -2.2350 2.8300 -2.0310
v  -2.2650 2.1000 0.0010
v  -2.2650 2.1700 0.0010
v  -2.2650 2.1700 -2.1010
v  -2.2650 2.1000 -2.1010
v  -2.2050 2.1000 0.0010
v  -2.2050 2.1700 0.0010
v  -2.2050 2.1700 -2.1010
v  -2.2050 2.1000 -2.1010
v  -2.2650 2.8300 0.0010
v  -2.2650 2.9000 0.0010
v  -2.2650 2.9000 -2.1010
v  -2.2650 2.8300 -2.1010
v  -2.2050 2.8300 0.0010
v  -2.2050 2.9000 0.0010
v  -2.2050 2.9000 -2.1010
v  -2.2050 2.8300 -2.1010
v  -2.2650 2.8300 -0.0690
v  -2.2650 2.1700 -0.0690
v  -2.2050 2.8300 -0.0690
v  -2.2050 2.1700 -0.0690
v  -2.2650 2.1700 -2.0310
v  -2.2650 2.8300 -2.0310
v  -2.2050 2.1700 -2.0310
v  -2.2050 2.8300 -2.0310
v  -2.2500 2.1700 -2.0310
v  -2.2500 2.8300 -2.0310
v  -2.2500 2.8300 -0.0690
v  -2.2500 2.1700 -0.0690
v  -2.2350 2.2000 -0.0690
v  -2.2350 2.2000 -2.0310
v  -2.2500 2.2000 -0.0690
v  -2.2500 2.2000 -2.0310
v  -2.2350 2.8000 -0.0690
v  -2.2350 2.8000 -2.0310
v  -2.2500 2.8000 -2.0310
v  -2.2500 2.8000 -0.0690
v  -2.2350 2.8000 -0.0990
v  -2.2350 2.2000 -0.0990
v  -2.2500 2.8000 -0.0990
v  -2.2500 2.2000 -0.0990
v  -2.2350 2.2000 -2.0010
v  -2.2350 2.8000 -2.0010
v  -2.2500 2.2000 -2.0010
v  -2.2500 2.8000 -2.0010
v  -2.2650 2.2000 -0.0690
v  -2.2650 2.2000 -2.0310
v  -2.2650 2.8000 -2.0310
v  -2.2650 2.8000 -0.0690
v  -2.2650 2.8000 -0.0990
v  -2.2650 2.2000 -0.0990
v  -2.2650 2.2000 -2.0010
v  -2.2650 2.8000 -2.0010
v  -2.2550 2.1700 -0.0690
v  -2.2550 2.8300 -0.0690
v  -2.2550 2.8300 -2.0310
v  -2.2550 2.1700 -2.0310
v  -2.2450 2.1700 -0.0690
v  -2.2450 2.8300 -0.0690
v  -2.2450 2.8300 -2.0310
v  -2.2450 2.1700 -2.0310
# 212 vertices

vn 0.5774 -0.5774 -0.5774
vn 0.5774 0.5774 -0.5774
vn 0.5774 0.5774 0.5774
vn 0.5774 -0.5774 0.5774
vn -0.5774 -0.5774 -0.5774
vn -0.5774 0.5774 -0.5774
vn -0.5774 0.5774 0.5774
vn -0.5774 -0.5774 0.5774
vn 1.0000 0.0000 0.0000
vn 0.7071 0.0000 0.7071
vn 0.0000 0.0000 -1.0000
vn -0.7071 -0.0000 0.7071
vn -1.0000 -0.0000 -0.0000
vn 0.7071 0.0000 -0.7071
vn -0.7071 -0.0000 -0.7071
vn -0.0000 0.0000 1.0000
vn -0.0000 1.0000 -0.0000
vn 0.0000 -1.0000 0.0000
vn 0.7071 -0.7071 0.0000
vn -0.7071 -0.7071 -0.0000
vn 0.7071 0.7071 0.0000
vn -0.7071 0.7071 -0.0000
vn -1.0000 0.0000 0.0000
vn -0.7071 0.0000 -0.7071
vn 0.7071 -0.0000 -0.7071
vn 1.0000 -0.0000 -0.0000
vn -0.7071 0.0000 0.7071
vn -1.0000 0.0000 -0.0000
vn 0.7071 -0.0000 0.7071
vn 1.0000 -0.0000 0.0000
vn -0.7071 -0.7071 0.0000
vn 0.7071 -0.7071 -0.0000
vn -0.7071 0.7071 0.0000
vn 0.7071 0.7071 -0.0000
# 34 vertex normals

o SlidingWindow001
g SlidingWindow001
usemtl Frame
s off
f 1//1 2//2 3//3 4//4 
f 1//1 5//5 6//6 2//2 
f 4//4 3//3 7//7 8//8 
f 2//2 6//6 7//7 3//3 
f 1//1 4//4 8//8 5//5 
f 5//5 8//8 7//7 6//6 
f 9//1 10//2 11//3 12//4 
f 9//1 13//5 14//6 10//2 
f 12//4 11//3 15//7 16//8 
f 10//2 14//6 15//7 11//3 
f 9//1 12//4 16//8 13//5 
f 13//5 16//8 15//7 14//6 
f 2//9 9//9 17//10 18//10 
f 2//11 6//11 13//11 
f 13//11 9//11 2//11 
f 18//10 17//10 19//12 20//12 
f 6//13 20//12 19//12 13//13 
f 21//14 22//14 12//9 3//9 
f 21//14 23//15 24//15 22//14 
f 3//16 12//16 16//16 
f 16//16 7//16 3//16 
f 7//13 16//13 24//15 23//15 
f 25//1 26//2 27//3 28//4 
f 25//1 29//5 30//6 26//2 
f 28//4 27//3 31//7 32//8 
f 26//2 30//6 31//7 27//3 
f 25//1 28//4 32//8 29//5 
f 29//5 32//8 31//7 30//6 
f 33//1 34//2 35//3 36//4 
f 33//1 37//5 38//6 34//2 
f 36//4 35//3 39//7 40//8 
f 34//2 38//6 39//7 35//3 
f 33//1 36//4 40//8 37//5 
f 37//5 40//8 39//7 38//6 
f 26//9 33//9 41//10 42//10 
f 26//11 30//11 37//11 
f 37//11 33//11 26//11 
f 42//10 41//10 43//12 44//12 
f 30//13 44//12 43//12 37//13 
f 45//14 46//14 36//9 27//9 
f 45//14 47//15 48//15 46//14 
f 27//16 36//16 40//16 
f 40//16 31//16 27//16 
f 31//13 40//13 48//15 47//15 
f 23//16 49//16 50//16 
f 50//16 24//16 23//16 
f 20//11 19//11 51//11 
f 51//16 52//16 20//16 
f 19//17 24//17 50//17 51//17 
f 20//17 23//17 49//17 
f 49//17 52//17 20//17 
f 23//11 24//11 50//11 
f 50//16 49//16 23//16 
f 20//16 52//16 51//16 
f 51//16 19//16 20//16 
f 19//18 51//18 50//18 
f 50//18 24//18 19//18 
f 20//18 52//18 49//18 
f 49//18 23//18 20//18 
f 49//16 45//16 46//16 
f 46//16 50//16 49//16 
f 51//17 50//17 46//17 41//17 
f 52//11 51//11 41//11 
f 41//11 42//11 52//11 
f 52//17 49//17 45//17 42//17 
f 49//11 50//11 46//11 
f 46//11 45//11 49//11 
f 51//18 41//18 46//18 
f 46//18 50//18 51//18 
f 52//16 42//16 41//16 
f 41//16 51//16 52//16 
f 52//18 42//18 45//18 
f 45//18 49//18 52//18 
f 53//3 54//19 55//19 49//2 
f 54//19 56//20 57//20 55//19 
f 58//7 59//6 57//20 56//20 
f 53//3 49//2 59//6 58//7 
f 60//21 61//4 50//1 62//21 
f 60//21 62//21 63//22 64//22 
f 64//22 63//22 65//5 66//8 
f 61//4 66//8 65//5 50//1 
f 54//9 60//9 67//14 68//14 
f 68//14 67//14 69//15 70//15 
f 56//13 70//15 69//15 64//13 
f 53//3 58//7 66//8 61//4 
f 71//10 72//10 62//9 55//9 
f 71//10 73//12 74//12 72//10 
f 57//13 63//13 74//12 73//12 
f 49//2 50//1 65//5 59//6 
f 20//3 75//19 76//19 77//2 
f 75//19 78//20 79//20 76//19 
f 80//7 81//6 79//20 78//20 
f 20//3 77//2 81//6 80//7 
f 82//21 19//4 83//1 84//21 
f 82//21 84//21 85//22 86//22 
f 86//22 85//22 87//5 88//8 
f 19//4 88//8 87//5 83//1 
f 75//9 82//9 89//14 90//14 
f 90//14 89//14 91//15 92//15 
f 78//13 92//15 91//15 86//13 
f 20//3 80//7 88//8 19//4 
f 93//10 94//10 84//9 76//9 
f 93//10 95//12 96//12 94//10 
f 79//13 85//13 96//12 95//12 
f 77//2 83//1 87//5 81//6 
f 58//3 56//19 57//19 59//2 
f 56//19 97//20 98//20 57//19 
f 99//7 45//6 98//20 97//20 
f 58//3 59//2 45//6 99//7 
f 64//21 66//4 65//1 63//21 
f 64//21 63//21 100//22 101//22 
f 101//22 100//22 46//5 102//8 
f 66//4 102//8 46//5 65//1 
f 56//9 64//9 69//14 70//14 
f 70//14 69//14 103//15 104//15 
f 97//13 104//15 103//15 101//13 
f 58//3 99//7 102//8 66//4 
f 73//10 74//10 63//9 57//9 
f 73//10 105//12 106//12 74//10 
f 98//13 100//13 106//12 105//12 
f 59//2 65//1 46//5 45//6 
f 80//3 78//19 79//19 81//2 
f 78//19 107//20 54//20 79//19 
f 52//7 53//6 54//20 107//20 
f 80//3 81//2 53//6 52//7 
f 86//21 88//4 87//1 85//21 
f 86//21 85//21 60//22 108//22 
f 108//22 60//22 61//5 51//8 
f 88//4 51//8 61//5 87//1 
f 78//9 86//9 91//14 92//14 
f 92//14 91//14 109//15 110//15 
f 107//13 110//15 109//15 108//13 
f 80//3 52//7 51//8 88//4 
f 95//10 96//10 85//9 79//9 
f 95//10 111//12 112//12 96//10 
f 54//13 60//13 112//12 111//12 
f 81//2 87//1 61//5 53//6 
usemtl Glass
f 113//1 114//2 115//3 116//4 
usemtl Frame
f 114//2 113//1 117//5 118//6 
f 115//3 114//2 118//6 119//7 
f 116//4 115//3 119//7 120//8 
f 113//1 116//4 120//8 117//5 
usemtl Glass
f 117//5 120//8 119//7 118//6 
f 121//1 122//2 123//3 124//4 
usemtl Frame
f 122//2 121//1 125//5 126//6 
f 123//3 122//2 126//6 127//7 
f 124//4 123//3 127//7 128//8 
f 121//1 124//4 128//8 125//5 
usemtl Glass
f 125//5 128//8 127//7 126//6 
usemtl Frame
f 129//8 130//7 131//6 132//5 
f 129//8 133//4 134//3 130//7 
f 132//5 131//6 135//2 136//1 
f 130//7 134//3 135//2 131//6 
f 129//8 132//5 136//1 133//4 
f 133//4 136//1 135//2 134//3 
f 137//8 138//7 139//6 140//5 
f 137//8 141//4 142//3 138//7 
f 140//5 139//6 143//2 144//1 
f 138//7 142//3 143//2 139//6 
f 137//8 140//5 144//1 141//4 
f 141//4 144//1 143//2 142//3 
f 130//23 137//23 145//24 146//24 
f 130//16 134//16 141//16 
f 141//16 137//16 130//16 
f 146//24 145//24 147//25 148//25 
f 134//26 148//25 147//25 141//26 
f 149//27 150//27 140//23 131//28 
f 149//27 151//29 152//29 150//27 
f 131//11 140//11 144//11 
f 144//11 135//11 131//11 
f 135//26 144//26 152//29 151//29 
f 153//8 154//7 155//6 156//5 
f 153//8 157//4 158//3 154//7 
f 156//5 155//6 159//2 160//1 
f 154//7 158//3 159//2 155//6 
f 153//8 156//5 160//1 157//4 
f 157//4 160//1 159//2 158//3 
f 161//8 162//7 163//6 164//5 
f 161//8 165//4 166//3 162//7 
f 164//5 163//6 167//2 168//1 
f 162//7 166//3 167//2 163//6 
f 161//8 164//5 168//1 165//4 
f 165//4 168//1 167//2 166//3 
f 154//23 161//23 169//24 170//24 
f 154//16 158//16 165//16 
f 165//16 161//16 154//16 
f 170//24 169//24 171//25 172//25 
f 158//26 172//25 171//25 165//26 
f 173//27 174//27 164//23 155//23 
f 173//27 175//29 176//29 174//27 
f 155//11 164//11 168//11 
f 168//11 159//11 155//11 
f 159//30 168//26 176//29 175//29 
f 151//16 177//16 178//16 
f 178//11 152//11 151//11 
f 148//16 147//16 179//16 
f 179//16 180//16 148//16 
f 147//17 152//17 178//17 179//17 
f 148//17 151//17 177//17 
f 177//17 180//17 148//17 
f 151//16 152//16 178//16 
f 178//16 177//16 151//16 
f 148//16 180//16 179//16 
f 179//11 147//11 148//11 
f 147//18 179//18 178//18 
f 178//18 152//18 147//18 
f 148//18 180//18 177//18 
f 177//18 151//18 148//18 
f 177//11 173//11 174//11 
f 174//11 178//11 177//11 
f 179//17 178//17 174//17 169//17 
f 180//16 179//16 169//16 
f 169//16 170//16 180//16 
f 180//17 177//17 173//17 170//17 
f 177//16 178//16 174//16 
f 174//16 173//16 177//16 
f 179//18 169//18 174//18 
f 174//18 178//18 179//18 
f 180//11 170//11 169//11 
f 169//11 179//11 180//11 
f 180//18 170//18 173//18 
f 173//18 177//18 180//18 
f 148//6 181//31 182//31 151//7 
f 181//31 183//32 184//32 182//31 
f 180//2 177//3 184//32 183//32 
f 148//6 151//7 177//3 180//2 
f 185//33 147//5 152//8 186//33 
f 185//33 186//33 187//34 188//34 
f 188//34 187//34 178//4 179//1 
f 147//5 179//1 178//4 152//8 
f 181//23 185//23 189//27 190//27 
f 190//27 189//27 191//29 192//29 
f 183//26 192//29 191//29 188//26 
f 148//6 180//2 179//1 147//5 
f 193//24 194//24 186//23 182//23 
f 193//24 195//25 196//25 194//24 
f 184//26 187//26 196//25 195//25 
f 151//7 152//8 178//4 177//3 
f 180//6 183//31 184//31 177//7 
f 183//31 197//32 198//32 184//31 
f 170//2 173//3 198//32 197//32 
f 180//6 177//7 173//3 170//2 
f 188//33 179//5 178//8 187//33 
f 188//33 187//33 199//34 200//34 
f 200//34 199//34 174//4 169//1 
f 179//5 169//1 174//4 178//8 
f 183//23 188//23 191//27 192//27 
f 192//27 191//27 201//29 202//29 
f 197//26 202//29 201//29 200//26 
f 180//6 170//2 169//1 179//5 
f 195//24 196//24 187//23 184//23 
f 195//24 203//25 204//25 196//24 
f 198//26 199//26 204//25 203//25 
f 177//7 178//8 174//4 173//3 
usemtl Glass
f 205//8 206//7 207//6 208//5 
usemtl Frame
f 206//7 205//8 209//4 210//3 
f 207//6 206//7 210//3 211//2 
f 208//5 207//6 211//2 212//1 
f 205//8 208//5 212//1 209//4 
usemtl Glass
f 209//4 212//1 211//2 210//3 
# 192 polygons - 68 triangles

