# 3ds Max Wavefront OBJ Exporter v0.97b - (c)2007 guruware
# File Created: 27.04.2020 21:17:47

mtllib walls.mtl

#
# object Walls
#

v  2.0000 0.0000 3.1000
v  2.0000 0.0000 -0.0000
v  2.1000 0.0000 0.1000
v  2.1000 0.0000 3.1000
v  2.0000 3.0000 3.1000
v  2.1000 3.0000 3.1000
v  2.1000 3.0000 -4.1000
v  2.0000 3.0000 -4.0000
v  2.1000 2.5000 0.1000
v  2.1000 0.0000 -2.1000
v  2.1000 0.0000 -4.1000
v  2.1000 2.5000 -2.1000
v  2.0000 0.0000 -4.0000
v  2.0000 0.0000 -2.0000
v  2.0000 2.4000 -2.0000
v  2.0000 2.4000 -0.0000
v  2.5000 2.4000 -0.0000
v  2.5000 0.0000 -0.0000
v  2.5000 2.4000 -2.0000
v  2.5000 0.0000 -2.0000
v  2.5000 0.0000 -0.3000
v  2.5000 2.1000 -0.3000
v  2.6000 2.1000 -0.3000
v  2.6000 0.0000 -0.3000
v  2.5000 2.1000 -1.7000
v  2.6000 2.1000 -1.7000
v  2.5000 0.0000 -1.7000
v  2.6000 0.0000 -1.7000
v  2.6000 0.0000 -2.1000
v  2.6000 0.0000 -2.0000
v  2.6000 2.5000 -2.1000
v  2.6000 2.5000 0.1000
v  2.6000 0.0000 0.1000
v  2.6000 0.0000 -0.0000
v  -2.0000 3.0000 -4.0000
v  -2.0000 0.0000 -4.0000
v  -2.3000 0.0000 -4.1000
v  -2.3000 3.0000 -4.1000
v  -2.0000 0.0000 -2.1000
v  -2.0000 3.0000 -2.1000
v  -2.3000 3.0000 -2.1000
v  -2.3000 0.0000 -2.1000
v  -2.3000 0.0000 0.3000
v  -2.3000 0.0000 -0.0000
v  -1.0000 0.0000 -0.0000
v  -1.0000 0.0000 0.3000
v  -2.3000 3.0000 0.3000
v  -1.0000 3.0000 0.3000
v  -1.0000 3.0000 -0.0000
v  -2.3000 3.0000 -0.0000
v  -1.3000 0.0000 1.7000
v  -1.0000 0.0000 1.7000
v  -1.0000 0.0000 3.1000
v  -1.3000 0.0000 3.1000
v  -1.3000 3.0000 1.7000
v  -1.3000 3.0000 3.1000
v  -1.0000 3.0000 3.1000
v  -1.0000 3.0000 1.7000
# 58 vertices

vn -0.5774 -0.5774 0.5774
vn -0.5774 -0.5774 -0.5774
vn 0.3015 -0.9045 0.3015
vn 0.5774 -0.5774 0.5774
vn -0.5774 0.5774 0.5774
vn 0.5774 0.5774 0.5774
vn 0.5774 0.5774 -0.5774
vn -0.3015 0.9045 0.3015
vn 0.9045 0.3015 0.3015
vn 0.3015 -0.9045 -0.3015
vn 0.5774 -0.5774 -0.5774
vn 0.9045 0.3015 -0.3015
vn -0.3015 -0.9045 0.3015
vn -0.9045 -0.3015 0.3015
vn -0.9045 -0.3015 -0.3015
vn -0.3015 -0.9045 -0.3015
vn 0.7071 -0.7071 -0.0000
vn 0.3015 0.9045 0.3015
vn -0.5774 0.5774 -0.5773
vn 0.5773 -0.5774 0.5773
vn -0.5774 0.5773 0.5774
vn -0.5774 -0.5773 0.5774
vn -0.5774 0.5774 -0.5774
# 23 vertex normals

vt -1.3500 -3.1000 -1.0000
vt -1.3500 -0.0000 -1.0000
vt -1.4500 -0.1000 -1.0000
vt -1.4500 -3.1000 -1.0000
vt 2.3500 -3.1000 2.0000
vt 2.4500 -3.1000 2.0000
vt 2.4500 4.1000 2.0000
vt 2.3500 4.0000 2.0000
vt 2.3500 -1.0000 -3.1000
vt 2.4500 -1.0000 -3.1000
vt 2.4500 2.0000 -3.1000
vt 2.3500 2.0000 -3.1000
vt -3.1000 -1.0000 2.4500
vt -0.1000 -1.0000 2.4500
vt -0.1000 1.5000 2.4500
vt -3.1000 2.0000 2.4500
vt 2.1000 -1.0000 2.4500
vt 4.1000 -1.0000 2.4500
vt 4.1000 2.0000 2.4500
vt 2.1000 1.5000 2.4500
vt -3.0000 -1.0000 2.3500
vt -1.0000 -1.0000 2.3500
vt -1.0000 1.4000 2.3500
vt -3.0000 2.0000 2.3500
vt 4.1000 -1.0000 2.3500
vt 4.1000 2.0000 2.3500
vt 1.0000 1.4000 2.3500
vt 1.0000 -1.0000 2.3500
vt -1.3500 -1.0000 -0.0000
vt -1.3500 1.4000 -0.0000
vt -1.8500 1.4000 -0.0000
vt -1.8500 -1.0000 -0.0000
vt -1.3500 -0.0000 1.4000
vt -1.3500 2.0000 1.4000
vt -1.8500 2.0000 1.4000
vt -1.8500 -0.0000 1.4000
vt 2.3500 1.4000 2.0000
vt 2.3500 -1.0000 2.0000
vt 2.8500 -1.0000 2.0000
vt 2.8500 1.4000 2.0000
vt -1.8500 -1.0000 0.3000
vt -1.8500 1.1000 0.3000
vt -1.9500 1.1000 0.3000
vt -1.9500 -1.0000 0.3000
vt -1.8500 0.3000 1.1000
vt -1.8500 1.7000 1.1000
vt -1.9500 1.7000 1.1000
vt -1.9500 0.3000 1.1000
vt 2.8500 1.1000 1.7000
vt 2.8500 -1.0000 1.7000
vt 2.9500 -1.0000 1.7000
vt 2.9500 1.1000 1.7000
vt -1.8500 2.0000 -1.0000
vt -1.3500 2.0000 -1.0000
vt -1.4500 2.1000 -1.0000
vt -1.9500 2.1000 -1.0000
vt -1.9500 2.0000 -1.0000
vt -1.4500 -1.0000 2.1000
vt -1.4500 1.5000 2.1000
vt -1.9500 1.5000 2.1000
vt -1.9500 -1.0000 2.1000
vt 2.4500 2.1000 1.5000
vt 2.4500 -0.1000 1.5000
vt 2.9500 -0.1000 1.5000
vt 2.9500 2.1000 1.5000
vt 2.4500 1.5000 -0.1000
vt 2.4500 -1.0000 -0.1000
vt 2.9500 -1.0000 -0.1000
vt 2.9500 1.5000 -0.1000
vt 1.0000 -1.0000 2.8500
vt 1.0000 1.4000 2.8500
vt 0.7000 1.1000 2.8500
vt 0.7000 -1.0000 2.8500
vt -1.0000 1.4000 2.8500
vt -0.7000 1.1000 2.8500
vt -1.0000 -1.0000 2.8500
vt -0.7000 -1.0000 2.8500
vt -1.9500 1.7000 -1.0000
vt -1.8500 1.7000 -1.0000
vt 2.0000 -1.0000 2.9500
vt 2.1000 -1.0000 2.9500
vt 2.1000 1.5000 2.9500
vt -0.1000 1.5000 2.9500
vt -0.1000 -1.0000 2.9500
vt -0.0000 -1.0000 2.9500
vt 0.3000 -1.0000 2.9500
vt 0.3000 1.1000 2.9500
vt 1.7000 1.1000 2.9500
vt 1.7000 -1.0000 2.9500
vt -1.9500 -0.0000 -1.0000
vt -1.8500 -0.0000 -1.0000
vt -1.8500 0.3000 -1.0000
vt -1.9500 0.3000 -1.0000
vt 2.3500 -1.0000 4.0000
vt 2.3500 2.0000 4.0000
vt -1.6500 2.0000 4.0000
vt -1.6500 -1.0000 4.0000
vt -1.4500 -1.0000 4.1000
vt 2.9500 -1.0000 4.1000
vt 2.9500 2.0000 4.1000
vt -1.4500 2.0000 4.1000
vt -1.6500 -1.0000 2.1000
vt -1.6500 2.0000 2.1000
vt -1.9500 2.0000 2.1000
vt 4.0000 -1.0000 -1.6500
vt 4.0000 2.0000 -1.6500
vt 2.1000 2.0000 -1.6500
vt 2.1000 -1.0000 -1.6500
vt -3.1000 -1.0000 -1.9500
vt -1.1000 -1.0000 -1.9500
vt -1.1000 2.0000 -1.9500
vt -3.1000 2.0000 -1.9500
vt -1.3500 4.0000 -1.0000
vt -1.4500 4.1000 -1.0000
vt -1.9500 -0.1000 -1.0000
vt -1.9500 4.1000 2.0000
vt -1.6500 4.0000 2.0000
vt 2.6500 4.0000 -1.0000
vt 2.9500 4.1000 -1.0000
vt 2.6500 2.1000 -1.0000
vt 2.9500 2.1000 -1.0000
vt -1.9500 2.1000 2.0000
vt -1.6500 2.1000 2.0000
vt 2.9500 -0.3000 -1.0000
vt 2.9500 0.0000 -1.0000
vt 1.6500 0.0000 -1.0000
vt 1.6500 -0.3000 -1.0000
vt -1.9500 -0.3000 2.0000
vt -0.6500 -0.3000 2.0000
vt -0.6500 0.0000 2.0000
vt -1.9500 0.0000 2.0000
vt -1.9500 -1.0000 -0.3000
vt -0.6500 -1.0000 -0.3000
vt -0.6500 2.0000 -0.3000
vt -1.9500 2.0000 -0.3000
vt -0.3000 -1.0000 -0.6500
vt 0.0000 -1.0000 -0.6500
vt 0.0000 2.0000 -0.6500
vt -0.3000 2.0000 -0.6500
vt 1.6500 -1.0000 0.0000
vt 2.9500 -1.0000 0.0000
vt 2.9500 2.0000 0.0000
vt 1.6500 2.0000 0.0000
vt 1.0000 -1.0000 -1.9500
vt 1.3000 -1.0000 -1.9500
vt 1.3000 2.0000 -1.9500
vt 1.0000 2.0000 -1.9500
vt 1.9500 -1.7000 -1.0000
vt 1.6500 -1.7000 -1.0000
vt 1.6500 -3.1000 -1.0000
vt 1.9500 -3.1000 -1.0000
vt -0.9500 -1.7000 2.0000
vt -0.9500 -3.1000 2.0000
vt -0.6500 -3.1000 2.0000
vt -0.6500 -1.7000 2.0000
vt 2.7000 -1.0000 -0.9500
vt 4.1000 -1.0000 -0.9500
vt 4.1000 2.0000 -0.9500
vt 2.7000 2.0000 -0.9500
vt -0.9500 -1.0000 -3.1000
vt -0.6500 -1.0000 -3.1000
vt -0.6500 2.0000 -3.1000
vt -0.9500 2.0000 -3.1000
vt -3.1000 -1.0000 -0.6500
vt -1.7000 -1.0000 -0.6500
vt -1.7000 2.0000 -0.6500
vt -3.1000 2.0000 -0.6500
vt 1.6500 -1.0000 -1.7000
vt 1.9500 -1.0000 -1.7000
vt 1.9500 2.0000 -1.7000
vt 1.6500 2.0000 -1.7000
# 171 texture coords

o Walls
g Walls
usemtl Wall
s 2
f 1/1/1 2/2/2 3/3/3 4/4/4 
s 4
f 5/5/5 6/6/6 7/7/7 8/8/8 
s 8
f 1/9/1 4/10/4 6/11/6 5/12/5 
s 16
f 4/13/4 3/14/3 9/15/9 6/16/6 
f 10/17/10 11/18/11 7/19/7 12/20/12 
s 64
f 13/21/13 14/22/1 15/23/14 8/24/8 
f 1/25/1 5/26/5 16/27/15 2/28/2 
s 1
f 2/29/2 16/30/15 17/31/2 18/32/16 
s 2
f 16/33/15 15/34/14 19/35/1 17/36/2 
s 1
f 15/37/14 14/38/1 20/39/13 19/40/1 
s off
f 21/41/2 22/42/15 23/43/2 24/44/11 
f 22/45/15 25/46/14 26/47/1 23/48/2 
f 25/49/14 27/50/1 28/51/4 26/52/1 
s 2
f 20/53/13 14/54/1 10/55/10 29/56/11 30/57/17 
s off
f 10/58/10 12/59/12 31/60/7 29/61/11 
f 12/62/12 9/63/9 32/64/6 31/65/7 
f 9/66/9 3/67/3 33/68/4 32/69/6 
f 18/70/16 17/71/2 22/72/15 21/73/2 
f 17/71/2 19/74/1 25/75/14 22/72/15 
f 19/74/1 20/76/13 27/77/1 25/75/14 
f 20/53/13 30/57/17 28/78/4 27/79/1 
s 16
f 30/80/17 29/81/11 31/82/7 32/83/6 33/84/4 34/85/17 24/86/11 23/87/2 26/88/1 28/89/4 
s off
f 34/90/17 18/91/16 21/92/2 24/93/11 
f 13/94/13 8/95/8 35/96/18 36/97/3 
s 32
f 11/98/11 37/99/2 38/100/19 7/101/7 
s off
f 39/102/20 40/103/6 41/104/21 42/61/22 
f 36/105/3 35/106/18 40/107/6 39/108/20 
s 64
f 37/109/2 42/110/22 41/111/21 38/112/19 
s 2
f 14/54/1 13/113/13 11/114/11 10/55/10 
f 2/2/2 18/91/16 34/90/17 33/115/4 3/3/3 
s 4
f 7/7/7 38/116/19 35/117/18 8/8/8 
s 2
f 13/113/13 36/118/3 37/119/2 11/114/11 
f 36/118/3 39/120/20 42/121/22 37/119/2 
s 4
f 38/116/19 41/122/21 40/123/6 35/117/18 
s 64
f 5/26/5 8/24/8 15/23/14 16/27/15 
s 16
f 9/15/9 12/20/12 7/19/7 6/16/6 
s 2
f 43/124/1 44/125/2 45/126/11 46/127/4 
s 4
f 47/128/5 48/129/6 49/130/7 50/131/23 
s 8
f 43/132/1 46/133/4 48/134/6 47/135/5 
s 16
f 46/136/4 45/137/11 49/138/7 48/139/6 
s 32
f 45/140/11 44/141/2 50/142/23 49/143/7 
s 64
f 44/144/2 43/145/1 47/146/5 50/147/23 
s 2
f 51/148/2 52/149/11 53/150/4 54/151/1 
s 4
f 55/152/23 56/153/5 57/154/6 58/155/7 
s 8
f 51/156/2 54/157/1 56/158/5 55/159/23 
s 16
f 54/160/1 53/161/4 57/162/6 56/163/5 
s 32
f 53/164/4 52/165/11 58/166/7 57/167/6 
s 64
f 52/168/11 51/169/2 55/170/23 58/171/7 
# 48 polygons

